<?xml version="1.0" encoding="UTF-8"?>
<svg id="Layer_2" data-name="Layer 2" xmlns="http://www.w3.org/2000/svg" viewBox="0 0 717.14 826.1">
  <g id="Layer_1-2" data-name="Layer 1">
    <path d="M2.49,690.28c-6.77-30.01,.06-63.1,22.68-86.51,32.12-33.24,80.43-33.49,112.51-2.49,60.98,58.93-4,131.95,23.46,158.48,12.43,12.01,30.54,7.72,53.45-15.98,30.72-31.79,39.68-72.87-12.63-123.42l-35.55-34.35-3.05-95.16,54.28-.64,.7,40.92c.35,20.46-.31,31.55-2.17,39.26l1.16,1.12c9.34-2.15,23.81-3.82,48.81-4.24l78.14-1.05,.35,53.43-77.02,.46c36.24,41.73,43.33,107.27-11.41,163.91-46.92,48.55-98.32,50.85-132.72,17.62-58.67-56.69,9.19-127.49-22.02-157.65-10.98-10.61-26.01-8.37-36.34,2.33-10.89,11.27-13.72,28.66-10.27,47.64l-52.36-3.65Z"/>
    <path d="M471.51,597.39c-.14-9.59,1.27-24.08,6.11-48.62l15.4-76.62,52.31,10.89-15.95,76.51c55-23.33,114.1-14.58,154.4,45.51,37.38,55.74,29.05,108.27-11.67,135.58-23.03,15.44-45.1,15.73-65.74,10.21-3.84,23.86-15.37,44.18-38.74,59.85-39.05,26.19-85.89,18.4-110.96-18.98-23.28-34.71-17.83-79.99,22.23-106.85,67.43-45.22,127.61,32.98,161.32,10.37,14.02-9.4,15.42-28.24-3.16-55.95-31.78-47.4-76.26-46.61-126.33-13.03l-35.72,23.95-93.68-17.02,10.78-53.2,40.15,7.92c20.08,3.96,30.79,6.94,37.93,10.37l1.34-.89Zm87.65,134.3c-19.65-9.09-37.16-15.73-51.18-6.32-12.69,8.51-15.32,23.34-6.36,36.69,9.18,13.69,23.79,17.44,39.14,7.14,13.02-8.73,18.22-21.9,18.4-37.5Z"/>
    <path d="M716.45,257.81c3.59,30.56-6.66,62.75-31.61,83.66-35.42,29.69-83.5,24.89-112.16-9.29-54.48-64.99,17.78-130.81-6.75-160.07-11.1-13.24-29.57-10.87-54.82,10.3-33.88,28.4-47.09,68.32-.36,124.07l31.76,37.88-6.92,94.97-54.05-5.04,3.58-40.77c1.79-20.38,3.61-31.35,6.27-38.82l-1.03-1.23c-9.52,1.16-24.08,1.31-48.99-.88l-77.83-7.13,5.25-53.17,76.65,7.6c-31.68-45.3-31.87-111.21,28.5-161.82,8.01-6.71,16.22-12.55,24.03-17,4.06-20.19-2.32-35.3-10.58-45.15-16.78-20.02-43.05-26.32-78.16,3.11-34.19,28.66-36.57,58.98-15.66,83.93l-40.66,34.08c-39.76-47.43-43.7-109.69,21.59-164.43,58.52-49.06,114.74-39.55,153.99,7.27,17.04,20.33,24.42,43.51,23.25,66.52,21.92,.5,41.3,10.48,56.02,28.04,52.42,62.52-22.48,125.83,5.41,159.1,9.81,11.7,24.99,11.04,36.39,1.49,12.01-10.07,16.64-27.07,15.2-46.31l51.69,9.11Z"/>
    <path d="M49.3,348.62c-.22-6.54,.78-15.74,8.88-25.2,18.56-21.67,47.51-23.35,68.57-5.31,23.51,20.13,27.88,54.57,4.62,81.74-26.66,31.14-68.43,32.95-98.04,7.59-37.86-32.41-43.42-82.16-8.91-122.45,28.24-32.97,61.1-35.52,82.64-29.77l1.05-1.22c-14.79-25.36-10.23-54.8,10.43-78.91,31.89-37.25,82.99-40.06,124.81-4.25,38.16,32.68,53.14,78.84,47.23,124.05,6.1-2.18,11.68-3.75,17.26-5.33l17.9,43.37c-25.02,4.5-48.21,17.98-63.11,35.39-21.17,24.73-22.64,49.93-4.5,67.05-9.12-14.69-6.12-34.87,7.47-50.75,19.34-22.59,50.25-28.41,74.37-7.75,20.76,17.78,26.62,52.96,1.78,81.96-32.68,38.16-80.15,36.14-111.6,9.21-16.18-13.85-25.43-30.24-28.45-47.11-10.68,5.68-22.05,9.69-34.13,12.05l-9.79-52.83c20.53-3.58,40.45-15.1,56.66-34.03,34.77-40.6,29.86-96.66-7.08-128.3-21.37-18.3-42.08-16.98-54.63-2.33-14.38,16.79-7.92,33.96,12.54,51.48l10.38,8.89-35.82,41.83-10.99-9.41c-20.76-17.78-50.54-19.46-70.67,4.04-11.76,13.74-13.15,25.25-10.27,36.71l1.4-.39Zm14.25-3.67c-6.54,7.63-7.75,17.71,5.07,28.68,8.85,7.58,21.02,6.35,28.07-1.89,7.58-8.85,5.31-19.8-3.24-27.12-10.08-8.63-21.8-9.14-29.91,.32Zm246.18,90.69c7.06-8.24,7.66-18.84,.03-25.37-7.33-6.27-17.44-4.35-24.76,4.2s-7.36,19.1-.34,25.11c7.02,6.01,17.75,4.61,25.07-3.94Z"/>
  </g>
</svg>