<?xml version="1.0" encoding="UTF-8"?>
<svg id="Layer_2" data-name="Layer 2" xmlns="http://www.w3.org/2000/svg" viewBox="0 0 128.19 128.19">
  <defs>
    <style>
      .cls-1 {
        fill: black;
      }

      .cls-2 {
        fill: black;
      }
    </style>
  </defs>
  <g id="Layer_1-2" data-name="Layer 1">
    <path class="cls-2" d="M54.54,72.28c-1.88-1.28-2-4.61-.57-8.32,.53-1.39,1.28-2.83,2.24-4.24,.96-1.41,2.02-2.64,3.11-3.64,2.93-2.71,6.06-3.83,7.95-2.55,2.59,1.75,1.84,7.38-1.68,12.55-3.51,5.18-8.46,7.96-11.05,6.2Z"/>
    <path class="cls-2" d="M128.19,0V128.19H0v-62.59l54.24,17.53,1.07,.35h0c4.96,1.05,12.54-3.84,18.12-12.06,5.33-7.85,7.16-16.26,4.89-20.68l-.8-1.2L44.36,0h83.83Z"/>
    <g>
      <path class="cls-1" d="M54.24,83.13l1.07,.35c-.37-.08-.73-.2-1.07-.35Z"/>
      <path class="cls-1" d="M65.59,66.08c-3.51,5.18-8.46,7.96-11.05,6.2-1.88-1.28-2-4.61-.57-8.32,.71-1.37,1.53-2.74,2.45-4.1,.92-1.35,1.89-2.62,2.9-3.78,2.93-2.71,6.06-3.83,7.95-2.55,2.59,1.75,1.84,7.38-1.68,12.55Z"/>
      <path class="cls-1" d="M78.33,50.74l-.8-1.2c.31,.35,.58,.75,.8,1.2Z"/>
      <path class="cls-1" d="M65.59,66.08c-3.51,5.18-8.46,7.96-11.05,6.2-1.88-1.28-2-4.61-.57-8.32,.53-1.39,1.28-2.83,2.24-4.24,.96-1.41,2.02-2.64,3.11-3.64,2.93-2.71,6.06-3.83,7.95-2.55,2.59,1.75,1.84,7.38-1.68,12.55Z"/>
      <path class="cls-2" d="M65.59,66.08c-3.51,5.18-8.46,7.96-11.05,6.2-1.88-1.28-2-4.61-.57-8.32,.53-1.39,1.28-2.83,2.24-4.24,.96-1.41,2.02-2.64,3.11-3.64,2.93-2.71,6.06-3.83,7.95-2.55,2.59,1.75,1.84,7.38-1.68,12.55Z"/>
    </g>
  </g>
</svg>